<?xml version="1.0" encoding="utf-8"?>
<!-- Generator: Adobe Illustrator 15.1.0, SVG Export Plug-In . SVG Version: 6.00 Build 0)  -->
<!DOCTYPE svg PUBLIC "-//W3C//DTD SVG 1.1//EN" "http://www.w3.org/Graphics/SVG/1.1/DTD/svg11.dtd">
<svg version="1.1" id="Calque_1" xmlns="http://www.w3.org/2000/svg" xmlns:xlink="http://www.w3.org/1999/xlink" x="0px" y="0px"
	 width="559.93px" height="131px" viewBox="0 0 559.93 131" enable-background="new 0 0 559.93 131" xml:space="preserve">
<g>
	<path d="M243.623,131H45.611c-11.039,0-19.988-8.949-19.988-19.988V19.988C25.623,8.949,34.572,0,45.611,0h178.023
		c11.039,0,19.988,8.949,19.988,19.988V131z"/>
	<g>
		<path fill="#FBB03B" stroke="#FFFFFF" stroke-width="5" stroke-miterlimit="10" d="M51.123,31c0,5.247-4.253,9.5-9.5,9.5h-29
			c-5.247,0-9.5-4.253-9.5-9.5l0,0c0-5.247,4.253-9.5,9.5-9.5h29C46.869,21.5,51.123,25.753,51.123,31L51.123,31z"/>
		<path fill="#FBB03B" stroke="#FFFFFF" stroke-width="5" stroke-miterlimit="10" d="M51.123,64c0,5.247-4.253,9.5-9.5,9.5h-29
			c-5.247,0-9.5-4.253-9.5-9.5l0,0c0-5.247,4.253-9.5,9.5-9.5h29C46.869,54.5,51.123,58.753,51.123,64L51.123,64z"/>
		<path fill="#FBB03B" stroke="#FFFFFF" stroke-width="5" stroke-miterlimit="10" d="M51.123,98c0,5.247-4.253,9.5-9.5,9.5h-29
			c-5.247,0-9.5-4.253-9.5-9.5l0,0c0-5.247,4.253-9.5,9.5-9.5h29C46.869,88.5,51.123,92.753,51.123,98L51.123,98z"/>
	</g>
	<g>
		<path fill="#FFFFFF" d="M102.653,94.756L87.809,49.323l-2.812-10.121L83.873,49.66l-4.835,44.083
			c-0.225,1.574-1.575,2.812-3.149,2.812h-8.434c-1.575,0-2.699-1.125-2.474-2.812l9.334-74.559
			c0.225-2.024,1.799-3.374,3.823-3.374h10.234c1.574,0,3.036,1.012,3.486,2.586l16.869,51.842l2.25,7.76l2.249-7.646l16.981-52.068
			c0.45-1.462,1.912-2.474,3.486-2.474h9.334c2.024,0,3.599,1.349,3.823,3.374l9.334,74.559c0.225,1.687-0.899,2.812-2.474,2.812
			h-8.771c-1.574,0-2.924-1.125-3.149-2.699l-5.061-44.982l-1.125-9.671l-2.924,10.571l-14.507,44.87
			c-0.45,1.575-1.912,2.587-3.486,2.587h-8.547C104.565,97.229,103.103,96.218,102.653,94.756z"/>
		<path fill="#FFFFFF" d="M181.71,115.11l5.848-16.644l-22.042-62.751c-0.112-0.337-0.225-0.675-0.225-1.012
			c0-1.462,1.125-2.586,2.812-2.586h7.872c1.574,0,2.924,1.012,3.374,2.474l15.182,44.87l15.182-44.87
			c0.45-1.462,1.799-2.474,3.374-2.474h7.31c1.687,0,2.812,1.125,2.812,2.586c0,0.337-0.113,0.675-0.225,1.012l-28.227,80.07
			c-0.563,1.574-1.912,2.474-3.486,2.474h-7.422C182.16,118.259,181.148,116.685,181.71,115.11z"/>
		<path d="M263.691,94.193V34.479c0-1.35,1.012-2.362,2.362-2.362h8.771c1.35,0,2.362,1.012,2.362,2.362v5.285
			c4.049-5.51,9.784-9.109,16.981-9.109c13.045,0,22.491,9.896,22.491,23.616v39.923c0,1.35-1.013,2.361-2.362,2.361h-8.771
			c-1.35,0-2.361-1.012-2.361-2.361V55.958c0-7.873-4.161-12.371-11.583-12.371c-8.884,0-14.395,6.185-14.395,16.194v34.412
			c0,1.35-1.012,2.361-2.362,2.361h-8.771C264.703,96.555,263.691,95.543,263.691,94.193z"/>
		<path d="M331.277,71.701V56.97c0-14.395,11.92-26.315,26.765-26.315s26.765,11.92,26.765,26.315v14.731
			c0,14.395-11.92,26.315-26.765,26.315S331.277,86.096,331.277,71.701z M371.312,71.701V56.97c0-7.31-5.961-13.27-13.271-13.27
			s-13.27,5.96-13.27,13.27v14.731c0,7.311,5.96,13.271,13.27,13.271S371.312,79.012,371.312,71.701z"/>
		<path d="M404.375,76.987V44.712h-7.76c-1.35,0-2.362-1.012-2.362-2.362v-7.872c0-1.35,1.013-2.362,2.362-2.362h7.76V19.971
			c0-1.35,1.012-2.361,2.361-2.361h8.771c1.35,0,2.361,1.012,2.361,2.361v12.146h19.006c1.35,0,2.361,1.012,2.361,2.362v7.984
			c0,1.349-1.012,2.361-2.361,2.361H417.87v31.601c0,4.498,2.812,7.422,7.197,7.422l11.809,0.112c1.35,0,2.361,1.013,2.361,2.362
			v7.872c0,1.35-1.012,2.361-2.361,2.361h-12.82C412.36,96.555,404.375,88.683,404.375,76.987z"/>
		<path d="M449.582,69.678V57.532c0-14.957,11.92-26.877,26.765-26.877s26.765,11.92,26.765,26.877v7.534
			c0,2.699-2.137,4.836-4.835,4.836h-35.199v0.563c0,7.31,5.96,13.27,13.27,13.27h17.881c1.35,0,2.361,1.013,2.361,2.361v8.098
			c0,1.35-1.012,2.361-2.361,2.361h-17.881C461.501,96.555,449.582,84.634,449.582,69.678z M489.617,57.757v-1.012
			c0-7.31-5.961-13.271-13.271-13.271s-13.27,5.96-13.27,13.271v1.012H489.617z"/>
		<path d="M514.583,90.819c-0.787-0.563-1.013-1.687-0.675-2.587c1.012-2.361,2.586-4.947,3.823-7.084
			c0.563-0.9,1.237-1.35,2.249-1.35c0.563,0,1.013,0.112,1.574,0.449c5.286,3.711,9.784,5.398,15.069,5.398
			c6.298,0,9.672-2.475,9.672-6.522c0-4.498-4.724-5.511-14.282-9.334c-7.647-3.036-16.756-7.31-16.756-19.68
			c0-11.92,8.659-19.343,21.592-19.343c7.759,0,15.406,2.699,20.917,6.973c0.787,0.562,1.012,1.687,0.675,2.586
			c-1.013,2.361-2.137,4.611-3.374,7.084c-0.45,0.788-1.237,1.237-2.137,1.237c-0.563,0-1.013-0.112-1.574-0.45
			c-5.848-3.824-10.684-5.061-14.395-5.061c-5.061,0-8.21,2.249-8.21,6.185s2.812,6.073,11.583,9.447
			c7.647,2.924,19.455,6.522,19.455,19.455c0,11.92-9.671,19.792-23.503,19.792C527.965,98.017,520.319,95.205,514.583,90.819z"/>
	</g>
</g>
<line fill="none" stroke="#000000" stroke-width="11" stroke-miterlimit="10" x1="219.623" y1="125.5" x2="559.623" y2="125.5"/>
</svg>
