<?xml version="1.0" encoding="utf-8"?>
<!-- Generator: Adobe Illustrator 15.1.0, SVG Export Plug-In . SVG Version: 6.00 Build 0)  -->
<!DOCTYPE svg PUBLIC "-//W3C//DTD SVG 1.1//EN" "http://www.w3.org/Graphics/SVG/1.1/DTD/svg11.dtd">
<svg version="1.1" id="Calque_1" xmlns="http://www.w3.org/2000/svg" xmlns:xlink="http://www.w3.org/1999/xlink" x="0px" y="0px"
	 width="697.033px" height="131px" viewBox="0 0 697.033 131" enable-background="new 0 0 697.033 131" xml:space="preserve">
<path fill="#FFFFFF" d="M223.634,0H45.611C34.572,0,25.623,8.949,25.623,19.988v91.023c0,11.039,8.949,19.988,19.988,19.988h198.012
	V19.988C243.623,8.949,234.673,0,223.634,0z M152.708,97h-8.771c-1.574,0-2.924-1.348-3.149-2.922l-5.061-45.094l-1.125-9.727
	L131.679,49.8l-14.507,44.742c-0.45,1.575-1.912,2.458-3.486,2.458h-8.547c-1.574,0-3.036-0.896-3.486-2.359L86.809,49.266
	l-2.812-10.093l-1.125,10.473l-4.835,44.313C77.812,95.533,76.462,97,74.888,97h-8.434c-1.575,0-2.699-1.348-2.474-3.034
	l9.334-74.576c0.225-2.024,1.799-3.39,3.823-3.39h10.234c1.574,0,3.036,0.917,3.486,2.492l16.869,51.795l2.25,7.735l2.249-7.658
	l16.981-51.979c0.45-1.462,1.912-2.385,3.486-2.385h9.334c2.024,0,3.599,1.254,3.823,3.279l9.334,74.735
	C155.408,95.699,154.283,97,152.708,97z M221.982,35.715l-28.227,79.941c-0.563,1.574-1.912,2.344-3.486,2.344h-7.422
	c-1.687,0-2.699-1.445-2.136-3.02l5.848-16.578l-22.042-62.719c-0.112-0.337-0.225-0.717-0.225-1.055
	c0-1.462,1.125-2.628,2.812-2.628h7.872c1.574,0,2.924,1.07,3.374,2.532l15.182,44.899l15.182-44.914
	c0.45-1.462,1.799-2.518,3.374-2.518h7.31c1.687,0,2.812,1.183,2.812,2.645C222.207,34.982,222.094,35.378,221.982,35.715z"/>
<g>
	<path fill="#FBB03B" d="M50.623,31.5c0,5.247-4.253,9.5-9.5,9.5h-29c-5.247,0-9.5-4.253-9.5-9.5l0,0c0-5.247,4.253-9.5,9.5-9.5h29
		C46.369,22,50.623,26.253,50.623,31.5L50.623,31.5z"/>
	<path fill="#FBB03B" d="M50.623,64.5c0,5.247-4.253,9.5-9.5,9.5h-29c-5.247,0-9.5-4.253-9.5-9.5l0,0c0-5.247,4.253-9.5,9.5-9.5h29
		C46.369,55,50.623,59.253,50.623,64.5L50.623,64.5z"/>
	<path fill="#FBB03B" d="M50.623,98.5c0,5.247-4.253,9.5-9.5,9.5h-29c-5.247,0-9.5-4.253-9.5-9.5l0,0c0-5.247,4.253-9.5,9.5-9.5h29
		C46.369,89,50.623,93.253,50.623,98.5L50.623,98.5z"/>
</g>
<path fill="#FFFFFF" d="M262.691,94.193V34.479c0-1.35,1.012-2.362,2.362-2.362h8.771c1.35,0,2.362,1.012,2.362,2.362v5.285
	c4.049-5.51,9.784-9.109,16.981-9.109c13.045,0,22.491,9.896,22.491,23.616v39.923c0,1.35-1.013,2.361-2.362,2.361h-8.771
	c-1.35,0-2.361-1.012-2.361-2.361V55.958c0-7.873-4.161-12.371-11.583-12.371c-8.884,0-14.395,6.185-14.395,16.194v34.412
	c0,1.35-1.012,2.361-2.362,2.361h-8.771C263.703,96.555,262.691,95.543,262.691,94.193z"/>
<path fill="#FFFFFF" d="M330.277,71.701V56.97c0-14.395,11.92-26.315,26.765-26.315s26.765,11.92,26.765,26.315v14.731
	c0,14.395-11.92,26.315-26.765,26.315S330.277,86.096,330.277,71.701z M370.312,71.701V56.97c0-7.31-5.961-13.27-13.271-13.27
	s-13.27,5.96-13.27,13.27v14.731c0,7.311,5.96,13.271,13.27,13.271S370.312,79.012,370.312,71.701z"/>
<path fill="#FFFFFF" d="M403.375,76.987V44.712h-7.76c-1.35,0-2.362-1.012-2.362-2.362v-7.872c0-1.35,1.013-2.362,2.362-2.362h7.76
	V19.971c0-1.35,1.012-2.361,2.361-2.361h8.771c1.35,0,2.361,1.012,2.361,2.361v12.146h19.006c1.35,0,2.361,1.012,2.361,2.362v7.984
	c0,1.349-1.012,2.361-2.361,2.361H416.87v31.601c0,4.498,2.812,7.422,7.197,7.422l11.809,0.112c1.35,0,2.361,1.013,2.361,2.362
	v7.872c0,1.35-1.012,2.361-2.361,2.361h-12.82C411.36,96.555,403.375,88.683,403.375,76.987z"/>
<path fill="#FFFFFF" d="M448.582,69.678V57.532c0-14.957,11.92-26.877,26.765-26.877s26.765,11.92,26.765,26.877v7.534
	c0,2.699-2.137,4.836-4.835,4.836h-35.199v0.563c0,7.31,5.96,13.27,13.27,13.27h17.881c1.35,0,2.361,1.013,2.361,2.361v8.098
	c0,1.35-1.012,2.361-2.361,2.361h-17.881C460.501,96.555,448.582,84.634,448.582,69.678z M488.617,57.757v-1.012
	c0-7.31-5.961-13.271-13.271-13.271s-13.27,5.96-13.27,13.271v1.012H488.617z"/>
<path fill="#FFFFFF" d="M513.583,90.819c-0.787-0.563-1.013-1.687-0.675-2.587c1.012-2.361,2.586-4.947,3.823-7.084
	c0.563-0.9,1.237-1.35,2.249-1.35c0.563,0,1.013,0.112,1.574,0.449c5.286,3.711,9.784,5.398,15.069,5.398
	c6.298,0,9.672-2.475,9.672-6.522c0-4.498-4.724-5.511-14.282-9.334c-7.647-3.036-16.756-7.31-16.756-19.68
	c0-11.92,8.659-19.343,21.592-19.343c7.759,0,15.406,2.699,20.917,6.973c0.787,0.562,1.012,1.687,0.675,2.586
	c-1.013,2.361-2.137,4.611-3.374,7.084c-0.45,0.788-1.237,1.237-2.137,1.237c-0.563,0-1.013-0.112-1.574-0.45
	c-5.848-3.824-10.684-5.061-14.395-5.061c-5.061,0-8.21,2.249-8.21,6.185s2.812,6.073,11.583,9.447
	c7.647,2.924,19.455,6.522,19.455,19.455c0,11.92-9.671,19.792-23.503,19.792C526.965,98.017,519.319,95.205,513.583,90.819z"/>
<line fill="none" stroke="#FFFFFF" stroke-width="11" stroke-miterlimit="10" x1="219.623" y1="125.5" x2="696.623" y2="125.5"/>
<g>
	<path fill="#FFFFFF" d="M588.013,36.331l24.865-24.865l-9.996-9.967c-1.959-1.958-5.133-1.959-7.09-0.001l-17.762,17.762
		c-1.958,1.958-1.958,5.132,0.001,7.09L588.013,36.331z"/>
	<path fill="#FFFFFF" d="M682.593,82.711c0,0-0.678-1.372-1.299-2.593c-0.475-0.937-1.809-2.243-1.809-2.243l-58.817-58.643
		l-24.877,24.877l58.449,58.449c0,0,1.349,1.349,2.398,1.959c0.653,0.379,2.604,1.307,2.604,1.307l37.79,14.556L682.593,82.711z"/>
</g>
</svg>
