<?xml version="1.0" encoding="utf-8"?>
<!-- Generator: Adobe Illustrator 15.1.0, SVG Export Plug-In . SVG Version: 6.00 Build 0)  -->
<!DOCTYPE svg PUBLIC "-//W3C//DTD SVG 1.1//EN" "http://www.w3.org/Graphics/SVG/1.1/DTD/svg11.dtd">
<svg version="1.1" id="Calque_1" xmlns="http://www.w3.org/2000/svg" xmlns:xlink="http://www.w3.org/1999/xlink" x="0px" y="0px"
	 width="1192.67px" height="144.516px" viewBox="0 0 1192.67 144.516" enable-background="new 0 0 1192.67 144.516"
	 xml:space="preserve">
<g>
	<circle fill="#FBB03B" cx="96.415" cy="55.382" r="7.56"/>
	<circle fill="#FBB03B" cx="116.988" cy="18.895" r="2.944"/>
	<circle fill="#FBB03B" cx="133.641" cy="38.178" r="7.081"/>
	<circle fill="#FBB03B" cx="137.923" cy="11.669" r="4.282"/>
	<circle fill="#FBB03B" cx="155.251" cy="33.46" r="4.718"/>
	<circle fill="#FBB03B" cx="175.509" cy="18.895" r="2.944"/>
	<circle fill="#FBB03B" cx="199.772" cy="56.271" r="8.447"/>
	<circle fill="#FBB03B" cx="229.497" cy="41.292" r="7.833"/>
	<circle fill="#FBB03B" cx="247.798" cy="22.136" r="10.468"/>
	<circle fill="#FBB03B" cx="206.222" cy="6.477" r="6.449"/>
	<circle fill="#FBB03B" cx="204.44" cy="27.156" r="1.782"/>
	<circle fill="#FBB03B" cx="150.328" cy="64.394" r="8.123"/>
	<circle fill="#FBB03B" cx="101.133" cy="33.46" r="4.718"/>
	<circle fill="#FBB03B" cx="281.326" cy="47.712" r="2.454"/>
	<circle fill="#FBB03B" cx="257.115" cy="45.903" r="4.611"/>
	<circle fill="#FBB03B" cx="227.207" cy="12.929" r="5.543"/>
	<circle fill="#FBB03B" cx="181.944" cy="44.784" r="3.492"/>
	<circle fill="#FBB03B" cx="99.639" cy="3.253" r="3.224"/>
	<circle fill="#FBB03B" cx="78.121" cy="43.28" r="1.989"/>
	<circle fill="#FBB03B" cx="453.149" cy="17.162" r="7.56"/>
	<circle fill="#FBB03B" cx="432.577" cy="53.649" r="2.944"/>
	<circle fill="#FBB03B" cx="415.924" cy="34.366" r="7.081"/>
	<circle fill="#FBB03B" cx="411.641" cy="60.875" r="4.281"/>
	<circle fill="#FBB03B" cx="478.904" cy="58.16" r="14.356"/>
	<circle fill="#FBB03B" cx="394.313" cy="39.084" r="4.718"/>
	<circle fill="#FBB03B" cx="374.056" cy="53.649" r="2.944"/>
	<circle fill="#FBB03B" cx="349.792" cy="16.273" r="8.448"/>
	<circle fill="#FBB03B" cx="320.068" cy="31.252" r="7.833"/>
	<circle fill="#FBB03B" cx="301.767" cy="50.408" r="10.468"/>
	<circle fill="#FBB03B" cx="343.342" cy="66.066" r="6.449"/>
	<circle fill="#FBB03B" cx="345.125" cy="45.388" r="1.782"/>
	<circle fill="#FBB03B" cx="399.237" cy="8.15" r="8.123"/>
	<circle fill="#FBB03B" cx="448.432" cy="39.084" r="4.718"/>
	<circle fill="#FBB03B" cx="521.074" cy="37.583" r="3.865"/>
	<circle fill="#FBB03B" cx="491.72" cy="20.118" r="4.604"/>
	<circle fill="#FBB03B" cx="268.239" cy="24.832" r="2.454"/>
	<circle fill="#FBB03B" cx="292.449" cy="26.641" r="4.611"/>
	<circle fill="#FBB03B" cx="322.357" cy="59.615" r="5.543"/>
	<circle fill="#FBB03B" cx="367.62" cy="27.76" r="3.492"/>
	<circle fill="#FBB03B" cx="449.925" cy="69.291" r="3.225"/>
	<circle fill="#FBB03B" cx="507.83" cy="64.326" r="4.965"/>
	<circle fill="#FBB03B" cx="492.421" cy="41.486" r="3.904"/>
	<circle fill="#FBB03B" cx="471.444" cy="29.264" r="1.989"/>
	<circle fill="#FBB03B" cx="575.932" cy="55.382" r="7.561"/>
	<circle fill="#FBB03B" cx="596.504" cy="18.895" r="2.944"/>
	<circle fill="#FBB03B" cx="613.157" cy="38.178" r="7.081"/>
	<circle fill="#FBB03B" cx="617.439" cy="11.669" r="4.282"/>
	<circle fill="#FBB03B" cx="550.177" cy="14.384" r="14.356"/>
	<circle fill="#FBB03B" cx="634.769" cy="33.46" r="4.717"/>
	<circle fill="#FBB03B" cx="655.024" cy="18.895" r="2.943"/>
	<circle fill="#FBB03B" cx="679.288" cy="56.271" r="8.447"/>
	<circle fill="#FBB03B" cx="709.013" cy="41.292" r="7.832"/>
	<circle fill="#FBB03B" cx="727.314" cy="22.136" r="10.47"/>
	<circle fill="#FBB03B" cx="685.739" cy="6.477" r="6.449"/>
	<circle fill="#FBB03B" cx="683.957" cy="27.156" r="1.782"/>
	<circle fill="#FBB03B" cx="629.844" cy="64.394" r="8.123"/>
	<circle fill="#FBB03B" cx="580.649" cy="33.46" r="4.718"/>
	<circle fill="#FBB03B" cx="508.007" cy="34.961" r="3.865"/>
	<circle fill="#FBB03B" cx="537.361" cy="52.426" r="4.604"/>
	<path fill="#FBB03B" d="M763.294,47.712c0,1.355-1.095,2.454-2.453,2.454c-1.353,0-2.453-1.099-2.453-2.454
		s1.101-2.454,2.453-2.454C762.2,45.258,763.294,46.356,763.294,47.712z"/>
	<circle fill="#FBB03B" cx="736.633" cy="45.903" r="4.612"/>
	<circle fill="#FBB03B" cx="706.724" cy="12.929" r="5.542"/>
	<circle fill="#FBB03B" cx="661.46" cy="44.784" r="3.493"/>
	<circle fill="#FBB03B" cx="579.156" cy="3.253" r="3.225"/>
	<circle fill="#FBB03B" cx="521.251" cy="8.218" r="4.965"/>
	<circle fill="#FBB03B" cx="536.661" cy="31.058" r="3.904"/>
	<circle fill="#FBB03B" cx="557.638" cy="43.28" r="1.989"/>
	<circle fill="#FBB03B" cx="932.667" cy="17.162" r="7.561"/>
	<circle fill="#FBB03B" cx="912.096" cy="53.649" r="2.944"/>
	<path fill="#FBB03B" d="M888.362,34.366c0-3.911,3.168-7.081,7.078-7.081c3.914,0,7.082,3.17,7.082,7.081
		c0,3.912-3.168,7.081-7.082,7.081C891.53,41.447,888.362,38.278,888.362,34.366z"/>
	<circle fill="#FBB03B" cx="891.159" cy="60.875" r="4.281"/>
	<circle fill="#FBB03B" cx="958.42" cy="58.16" r="14.356"/>
	<circle fill="#FBB03B" cx="873.829" cy="39.084" r="4.717"/>
	<path fill="#FBB03B" d="M850.63,53.649c0-1.625,1.317-2.944,2.94-2.944c1.627,0,2.947,1.319,2.947,2.944
		c0,1.625-1.32,2.944-2.947,2.944C851.948,56.593,850.63,55.274,850.63,53.649z"/>
	<circle fill="#FBB03B" cx="829.309" cy="16.273" r="8.446"/>
	<circle fill="#FBB03B" cx="799.585" cy="31.252" r="7.832"/>
	<circle fill="#FBB03B" cx="781.284" cy="50.408" r="10.469"/>
	<circle fill="#FBB03B" cx="822.86" cy="66.066" r="6.449"/>
	<circle fill="#FBB03B" cx="824.641" cy="45.388" r="1.782"/>
	<circle fill="#FBB03B" cx="878.755" cy="8.15" r="8.123"/>
	<circle fill="#FBB03B" cx="927.949" cy="39.084" r="4.718"/>
	<circle fill="#FBB03B" cx="1000.591" cy="37.583" r="3.864"/>
	<circle fill="#FBB03B" cx="971.236" cy="20.118" r="4.605"/>
	<path fill="#FBB03B" d="M745.303,24.832c0-1.355,1.095-2.454,2.453-2.454c1.354,0,2.455,1.099,2.455,2.454
		s-1.102,2.454-2.455,2.454C746.398,27.286,745.303,26.188,745.303,24.832z"/>
	<circle fill="#FBB03B" cx="771.964" cy="26.641" r="4.611"/>
	<circle fill="#FBB03B" cx="801.875" cy="59.615" r="5.542"/>
	<circle fill="#FBB03B" cx="847.138" cy="27.76" r="3.493"/>
	<circle fill="#FBB03B" cx="929.442" cy="69.291" r="3.225"/>
	<path fill="#FBB03B" d="M982.384,64.326c0-2.743,2.221-4.965,4.961-4.965c2.745,0,4.968,2.222,4.968,4.965
		s-2.223,4.965-4.968,4.965C984.605,69.291,982.384,67.069,982.384,64.326z"/>
	<circle fill="#FBB03B" cx="971.938" cy="41.486" r="3.904"/>
	<circle fill="#FBB03B" cx="950.961" cy="29.264" r="1.99"/>
	<circle fill="#FBB03B" cx="1117.744" cy="17.162" r="7.561"/>
	<circle fill="#FBB03B" cx="1097.172" cy="53.649" r="2.943"/>
	<path fill="#FBB03B" d="M1073.438,34.366c0-3.911,3.168-7.081,7.079-7.081c3.913,0,7.081,3.17,7.081,7.081
		c0,3.912-3.168,7.081-7.081,7.081C1076.606,41.447,1073.438,38.278,1073.438,34.366z"/>
	<circle fill="#FBB03B" cx="1076.235" cy="60.875" r="4.282"/>
	<circle fill="#FBB03B" cx="1143.498" cy="58.16" r="14.356"/>
	<circle fill="#FBB03B" cx="1038.65" cy="53.649" r="2.944"/>
	<circle fill="#FBB03B" cx="1014.387" cy="16.273" r="8.448"/>
	<circle fill="#FBB03B" cx="1007.936" cy="66.066" r="6.449"/>
	<circle fill="#FBB03B" cx="1009.718" cy="45.388" r="1.782"/>
	<circle fill="#FBB03B" cx="1063.831" cy="8.15" r="8.123"/>
	<circle fill="#FBB03B" cx="1113.025" cy="39.084" r="4.718"/>
	<circle fill="#FBB03B" cx="1185.668" cy="37.583" r="3.864"/>
	<circle fill="#FBB03B" cx="1156.313" cy="20.118" r="4.605"/>
	<circle fill="#FBB03B" cx="1032.214" cy="27.76" r="3.493"/>
	<circle fill="#FBB03B" cx="1114.519" cy="69.291" r="3.224"/>
	<circle fill="#FBB03B" cx="1172.425" cy="64.326" r="4.965"/>
	<circle fill="#FBB03B" cx="1157.015" cy="41.486" r="3.904"/>
	<circle fill="#FBB03B" cx="1136.037" cy="29.264" r="1.989"/>
</g>
<g>
	<g>
		<circle fill="#F7931E" cx="106.136" cy="42.87" r="3.598"/>
		<circle fill="#F7931E" cx="108.426" cy="65.441" r="5.888"/>
		<circle fill="#F7931E" cx="138.844" cy="55.955" r="9.486"/>
		<circle fill="#F7931E" cx="141.625" cy="21.12" r="2.781"/>
		<circle fill="#F7931E" cx="171.556" cy="33.058" r="2.943"/>
		<circle fill="#F7931E" cx="94.559" cy="12.58" r="5.76"/>
	</g>
	<g>
		<circle fill="#F7931E" cx="224.103" cy="29.132" r="3.598"/>
		<circle fill="#F7931E" cx="221.813" cy="6.562" r="5.888"/>
		<circle fill="#F7931E" cx="191.395" cy="16.048" r="9.486"/>
		<circle fill="#F7931E" cx="188.614" cy="50.883" r="2.781"/>
		<circle fill="#F7931E" cx="158.684" cy="38.944" r="2.944"/>
		<circle fill="#F7931E" cx="290.76" cy="65.185" r="6.144"/>
		<circle fill="#F7931E" cx="277.748" cy="29.787" r="2.944"/>
		<circle fill="#F7931E" cx="262.048" cy="45.976" r="4.906"/>
		<circle fill="#F7931E" cx="255.341" cy="11.632" r="6.706"/>
		<circle fill="#F7931E" cx="235.679" cy="59.423" r="5.76"/>
		<circle fill="#F7931E" cx="310.294" cy="49.25" r="4.415"/>
	</g>
	<g>
		<circle fill="#F7931E" cx="380.947" cy="42.87" r="3.598"/>
		<circle fill="#F7931E" cx="383.236" cy="65.441" r="5.888"/>
		<circle fill="#F7931E" cx="413.655" cy="55.955" r="9.486"/>
		<circle fill="#F7931E" cx="416.437" cy="21.12" r="2.781"/>
		<circle fill="#F7931E" cx="446.366" cy="33.058" r="2.944"/>
		<circle fill="#F7931E" cx="314.289" cy="6.818" r="6.144"/>
		<circle fill="#F7931E" cx="327.302" cy="42.216" r="2.944"/>
		<circle fill="#F7931E" cx="343.002" cy="26.027" r="4.907"/>
		<circle fill="#F7931E" cx="349.709" cy="60.37" r="6.706"/>
		<circle fill="#F7931E" cx="369.37" cy="12.58" r="5.76"/>
		<circle fill="#F7931E" cx="294.755" cy="22.753" r="4.414"/>
	</g>
	<g>
		<circle fill="#F7931E" cx="498.913" cy="29.132" r="3.598"/>
		<circle fill="#F7931E" cx="496.624" cy="6.562" r="5.888"/>
		<circle fill="#F7931E" cx="466.205" cy="16.048" r="9.486"/>
		<circle fill="#F7931E" cx="463.424" cy="50.883" r="2.781"/>
		<circle fill="#F7931E" cx="433.494" cy="38.944" r="2.944"/>
		<circle fill="#F7931E" cx="565.571" cy="65.185" r="6.145"/>
		<circle fill="#F7931E" cx="552.559" cy="29.787" r="2.944"/>
		<circle fill="#F7931E" cx="536.858" cy="45.976" r="4.907"/>
		<circle fill="#F7931E" cx="530.152" cy="11.632" r="6.706"/>
		<circle fill="#F7931E" cx="510.49" cy="59.423" r="5.76"/>
		<circle fill="#F7931E" cx="585.105" cy="49.25" r="4.415"/>
	</g>
	<g>
		<circle fill="#F7931E" cx="661.366" cy="42.87" r="3.598"/>
		<circle fill="#F7931E" cx="663.656" cy="65.441" r="5.888"/>
		<circle fill="#F7931E" cx="694.075" cy="55.955" r="9.486"/>
		<path fill="#F7931E" d="M699.636,21.12c0,1.536-1.242,2.78-2.782,2.78c-1.533,0-2.779-1.244-2.779-2.78s1.246-2.781,2.779-2.781
			C698.394,18.339,699.636,19.583,699.636,21.12z"/>
		<circle fill="#F7931E" cx="726.786" cy="33.058" r="2.944"/>
		<circle fill="#F7931E" cx="594.708" cy="6.818" r="6.145"/>
		<circle fill="#F7931E" cx="607.72" cy="42.216" r="2.942"/>
		<circle fill="#F7931E" cx="623.42" cy="26.027" r="4.906"/>
		<circle fill="#F7931E" cx="630.127" cy="60.37" r="6.705"/>
		<path fill="#F7931E" d="M655.55,12.58c0,3.18-2.581,5.759-5.76,5.759c-3.182,0-5.762-2.58-5.762-5.759
			c0-3.182,2.58-5.761,5.762-5.761C652.969,6.818,655.55,9.398,655.55,12.58z"/>
		<circle fill="#F7931E" cx="575.174" cy="22.753" r="4.414"/>
	</g>
	<g>
		<circle fill="#F7931E" cx="779.332" cy="29.132" r="3.599"/>
		<circle fill="#F7931E" cx="777.042" cy="6.562" r="5.888"/>
		<path fill="#F7931E" d="M737.136,16.048c0-5.239,4.251-9.486,9.486-9.486c5.243,0,9.486,4.247,9.486,9.486
			c0,5.24-4.243,9.487-9.486,9.487C741.387,25.535,737.136,21.288,737.136,16.048z"/>
		<circle fill="#F7931E" cx="743.844" cy="50.883" r="2.779"/>
		<path fill="#F7931E" d="M710.968,38.944c0-1.625,1.32-2.943,2.947-2.943c1.623,0,2.94,1.319,2.94,2.943
			c0,1.625-1.317,2.944-2.94,2.944C712.289,41.889,710.968,40.57,710.968,38.944z"/>
		<circle fill="#F7931E" cx="845.991" cy="65.185" r="6.145"/>
		<circle fill="#F7931E" cx="832.978" cy="29.787" r="2.944"/>
		<circle fill="#F7931E" cx="817.277" cy="45.976" r="4.906"/>
		<circle fill="#F7931E" cx="810.57" cy="11.632" r="6.705"/>
		<circle fill="#F7931E" cx="790.91" cy="59.423" r="5.762"/>
		<path fill="#F7931E" d="M861.111,49.25c0-2.438,1.974-4.415,4.414-4.415c2.439,0,4.413,1.976,4.413,4.415
			s-1.974,4.414-4.413,4.414C863.084,53.664,861.111,51.688,861.111,49.25z"/>
	</g>
	<g>
		<circle fill="#F7931E" cx="936.177" cy="42.87" r="3.599"/>
		<path fill="#F7931E" d="M944.355,65.441c0,3.252-2.639,5.887-5.889,5.887c-3.249,0-5.888-2.635-5.888-5.887
			c0-3.252,2.639-5.888,5.888-5.888C941.716,59.553,944.355,62.188,944.355,65.441z"/>
		<circle fill="#F7931E" cx="968.886" cy="55.955" r="9.486"/>
		<path fill="#F7931E" d="M974.447,21.12c0,1.536-1.243,2.78-2.782,2.78c-1.533,0-2.779-1.244-2.779-2.78s1.246-2.781,2.779-2.781
			C973.204,18.339,974.447,19.583,974.447,21.12z"/>
		<circle fill="#F7931E" cx="1001.597" cy="33.058" r="2.944"/>
		<path fill="#F7931E" d="M875.666,6.818c0,3.395-2.756,6.146-6.145,6.146c-3.396,0-6.146-2.75-6.146-6.146
			c0-3.393,2.75-6.144,6.146-6.144C872.91,0.674,875.666,3.426,875.666,6.818z"/>
		<circle fill="#F7931E" cx="882.531" cy="42.216" r="2.944"/>
		<circle fill="#F7931E" cx="898.231" cy="26.027" r="4.906"/>
		<circle fill="#F7931E" cx="904.938" cy="60.37" r="6.705"/>
		<circle fill="#F7931E" cx="924.6" cy="12.58" r="5.761"/>
		<circle fill="#F7931E" cx="849.984" cy="22.753" r="4.414"/>
	</g>
	<g>
		<circle fill="#F7931E" cx="1051.853" cy="6.562" r="5.888"/>
		<path fill="#F7931E" d="M1011.948,16.048c0-5.239,4.25-9.486,9.486-9.486c5.241,0,9.486,4.247,9.486,9.486
			c0,5.24-4.245,9.487-9.486,9.487C1016.198,25.535,1011.948,21.288,1011.948,16.048z"/>
		<circle fill="#F7931E" cx="1018.655" cy="50.883" r="2.779"/>
		<path fill="#F7931E" d="M985.78,38.944c0-1.625,1.318-2.943,2.946-2.943c1.623,0,2.941,1.319,2.941,2.943
			c0,1.625-1.318,2.944-2.941,2.944C987.098,41.889,985.78,40.57,985.78,38.944z"/>
		<circle fill="#F7931E" cx="1120.802" cy="65.185" r="6.145"/>
		<circle fill="#F7931E" cx="1107.789" cy="29.787" r="2.944"/>
		<circle fill="#F7931E" cx="1092.088" cy="45.976" r="4.906"/>
		<circle fill="#F7931E" cx="1085.381" cy="11.632" r="6.705"/>
		<circle fill="#F7931E" cx="1140.335" cy="49.25" r="4.414"/>
	</g>
	<g>
		<path fill="#F7931E" d="M1185.145,29.132c0-1.986,1.614-3.598,3.599-3.598c1.988,0,3.599,1.611,3.599,3.598
			c0,1.987-1.61,3.599-3.599,3.599C1186.759,32.731,1185.145,31.119,1185.145,29.132z"/>
		<circle fill="#F7931E" cx="1186.455" cy="6.562" r="5.888"/>
		<path fill="#F7931E" d="M1146.549,16.048c0-5.239,4.25-9.486,9.485-9.486c5.242,0,9.486,4.247,9.486,9.486
			c0,5.24-4.244,9.487-9.486,9.487C1150.799,25.535,1146.549,21.288,1146.549,16.048z"/>
		<circle fill="#F7931E" cx="1153.255" cy="50.883" r="2.779"/>
		<circle fill="#F7931E" cx="1123.324" cy="38.944" r="2.944"/>
	</g>
</g>
<g>
	<circle fill="#FBD13B" cx="171.556" cy="14.303" r="2.943"/>
	<circle fill="#FBD13B" cx="186.442" cy="25.667" r="4.497"/>
	<circle fill="#FBD13B" cx="205.602" cy="14.303" r="2.944"/>
	<circle fill="#FBD13B" cx="237.095" cy="45.955" r="4.345"/>
	<circle fill="#FBD13B" cx="306.031" cy="21.511" r="4.264"/>
	<circle fill="#FBD13B" cx="366.148" cy="53.864" r="7.908"/>
	<circle fill="#FBD13B" cx="424.426" cy="19.509" r="5.208"/>
	<circle fill="#FBD13B" cx="483.71" cy="42.329" r="4.807"/>
	<circle fill="#FBD13B" cx="553.691" cy="15.435" r="4.076"/>
	<circle fill="#FBD13B" cx="638.448" cy="33.843" r="3.681"/>
	<circle fill="#FBD13B" cx="741.879" cy="34.907" r="4.743"/>
	<circle fill="#FBD13B" cx="701.789" cy="38.778" r="4.935"/>
	<circle fill="#FBD13B" cx="718.054" cy="20.09" r="5.788"/>
	<circle fill="#FBD13B" cx="815.717" cy="47.475" r="5.146"/>
	<path fill="#FBD13B" d="M936.177,30.179c0,4.789-3.88,8.668-8.666,8.668c-4.791,0-8.672-3.88-8.672-8.668
		c0-4.788,3.881-8.668,8.672-8.668C932.297,21.511,936.177,25.391,936.177,30.179z"/>
	<circle fill="#FBD13B" cx="954.186" cy="55.514" r="5.214"/>
	<circle fill="#FBD13B" cx="996.955" cy="38.485" r="4.642"/>
	<path fill="#FBD13B" d="M843.645,36.969c0,3.759-3.049,6.805-6.805,6.805c-3.759,0-6.807-3.046-6.807-6.805
		c0-3.758,3.048-6.805,6.807-6.805C840.596,30.164,843.645,33.21,843.645,36.969z"/>
	<circle fill="#FBD13B" cx="563.999" cy="45.983" r="4.372"/>
	<circle fill="#FBD13B" cx="110.083" cy="28.949" r="4.231"/>
	<circle fill="#FBD13B" cx="1068.53" cy="26.417" r="4.908"/>
	<circle fill="#FBD13B" cx="866.243" cy="42.519" r="2.869"/>
	<circle fill="#FBD13B" cx="1059.038" cy="49.059" r="1.297"/>
	<circle fill="#FBD13B" cx="1108.935" cy="49.477" r="4.09"/>
	<circle fill="#FBD13B" cx="1161.688" cy="25.005" r="3.833"/>
	<circle fill="#FBD13B" cx="670.966" cy="18.669" r="1.423"/>
	<circle fill="#FBD13B" cx="1179.597" cy="51.684" r="2.207"/>
</g>
<g>
	<circle fill="#FBB03B" cx="1145.802" cy="127.383" r="7.561"/>
	<circle fill="#FBB03B" cx="1125.23" cy="90.895" r="2.944"/>
	<circle fill="#FBB03B" cx="1108.577" cy="110.178" r="7.081"/>
	<circle fill="#FBB03B" cx="1104.295" cy="83.669" r="4.282"/>
	<circle fill="#FBB03B" cx="1171.556" cy="86.384" r="14.356"/>
	<circle fill="#FBB03B" cx="1086.966" cy="105.46" r="4.718"/>
	<circle fill="#FBB03B" cx="1066.709" cy="90.895" r="2.944"/>
	<circle fill="#FBB03B" cx="1012.72" cy="113.292" r="7.833"/>
	<circle fill="#FBB03B" cx="994.42" cy="94.136" r="10.467"/>
	<circle fill="#FBB03B" cx="1035.996" cy="78.477" r="6.449"/>
	<circle fill="#FBB03B" cx="1037.778" cy="99.156" r="1.782"/>
	<circle fill="#FBB03B" cx="1091.89" cy="136.394" r="8.123"/>
	<circle fill="#FBB03B" cx="1141.084" cy="105.46" r="4.718"/>
	<circle fill="#FBB03B" cx="1184.374" cy="124.426" r="4.604"/>
	<circle fill="#FBB03B" cx="960.892" cy="119.712" r="2.454"/>
	<circle fill="#FBB03B" cx="985.102" cy="117.903" r="4.61"/>
	<circle fill="#FBB03B" cx="1015.01" cy="84.929" r="5.543"/>
	<circle fill="#FBB03B" cx="1142.578" cy="75.253" r="3.224"/>
	<circle fill="#FBB03B" cx="1185.074" cy="103.058" r="3.904"/>
	<circle fill="#FBB03B" cx="1164.097" cy="115.28" r="1.989"/>
	<circle fill="#FBB03B" cx="789.068" cy="89.162" r="7.56"/>
	<circle fill="#FBB03B" cx="809.641" cy="125.648" r="2.944"/>
	<circle fill="#FBB03B" cx="826.293" cy="106.366" r="7.081"/>
	<circle fill="#FBB03B" cx="830.576" cy="132.875" r="4.282"/>
	<circle fill="#FBB03B" cx="763.314" cy="130.16" r="14.356"/>
	<circle fill="#FBB03B" cx="847.905" cy="111.084" r="4.718"/>
	<circle fill="#FBB03B" cx="868.162" cy="125.648" r="2.944"/>
	<circle fill="#FBB03B" cx="892.425" cy="88.273" r="8.447"/>
	<circle fill="#FBB03B" cx="922.15" cy="103.252" r="7.833"/>
	<circle fill="#FBB03B" cx="940.451" cy="122.408" r="10.468"/>
	<circle fill="#FBB03B" cx="898.875" cy="138.066" r="6.449"/>
	<circle fill="#FBB03B" cx="897.093" cy="117.388" r="1.782"/>
	<circle fill="#FBB03B" cx="842.981" cy="80.15" r="8.123"/>
	<circle fill="#FBB03B" cx="793.786" cy="111.084" r="4.718"/>
	<circle fill="#FBB03B" cx="721.143" cy="109.583" r="3.865"/>
	<circle fill="#FBB03B" cx="750.498" cy="92.118" r="4.604"/>
	<circle fill="#FBB03B" cx="973.979" cy="96.832" r="2.454"/>
	<circle fill="#FBB03B" cx="949.769" cy="98.641" r="4.611"/>
	<path fill="#FBB03B" d="M925.404,131.615c0-3.063-2.482-5.545-5.544-5.545c-3.06,0-5.543,2.482-5.543,5.545
		c0,3.06,2.483,5.542,5.543,5.542C922.921,137.157,925.404,134.675,925.404,131.615z"/>
	<circle fill="#FBB03B" cx="874.598" cy="99.76" r="3.492"/>
	<circle fill="#FBB03B" cx="792.292" cy="141.291" r="3.225"/>
	<circle fill="#FBB03B" cx="734.387" cy="136.326" r="4.965"/>
	<circle fill="#FBB03B" cx="749.797" cy="113.486" r="3.904"/>
	<circle fill="#FBB03B" cx="770.774" cy="101.264" r="1.989"/>
	<circle fill="#FBB03B" cx="666.285" cy="127.383" r="7.56"/>
	<circle fill="#FBB03B" cx="645.713" cy="90.895" r="2.944"/>
	<circle fill="#FBB03B" cx="629.061" cy="110.178" r="7.081"/>
	<circle fill="#FBB03B" cx="624.778" cy="83.669" r="4.282"/>
	<circle fill="#FBB03B" cx="692.04" cy="86.384" r="14.356"/>
	<circle fill="#FBB03B" cx="607.449" cy="105.46" r="4.717"/>
	<circle fill="#FBB03B" cx="587.194" cy="90.895" r="2.943"/>
	<circle fill="#FBB03B" cx="562.93" cy="128.271" r="8.447"/>
	<circle fill="#FBB03B" cx="533.205" cy="113.292" r="7.832"/>
	<circle fill="#FBB03B" cx="514.904" cy="94.136" r="10.47"/>
	<circle fill="#FBB03B" cx="556.479" cy="78.477" r="6.449"/>
	<circle fill="#FBB03B" cx="558.261" cy="99.156" r="1.782"/>
	<circle fill="#FBB03B" cx="612.374" cy="136.394" r="8.123"/>
	<circle fill="#FBB03B" cx="661.568" cy="105.46" r="4.719"/>
	<circle fill="#FBB03B" cx="734.211" cy="106.961" r="3.866"/>
	<circle fill="#FBB03B" cx="704.856" cy="124.426" r="4.604"/>
	<path fill="#FBB03B" d="M478.923,119.712c0,1.355,1.095,2.454,2.453,2.454c1.353,0,2.453-1.099,2.453-2.454
		s-1.101-2.454-2.453-2.454C480.018,117.258,478.923,118.356,478.923,119.712z"/>
	<circle fill="#FBB03B" cx="505.585" cy="117.903" r="4.612"/>
	<circle fill="#FBB03B" cx="535.494" cy="84.929" r="5.542"/>
	<circle fill="#FBB03B" cx="580.757" cy="116.784" r="3.493"/>
	<circle fill="#FBB03B" cx="663.062" cy="75.253" r="3.225"/>
	<circle fill="#FBB03B" cx="720.966" cy="80.218" r="4.965"/>
	<circle fill="#FBB03B" cx="705.557" cy="103.058" r="3.904"/>
	<circle fill="#FBB03B" cx="684.58" cy="115.28" r="1.989"/>
	<circle fill="#FBB03B" cx="309.551" cy="89.162" r="7.561"/>
	<circle fill="#FBB03B" cx="330.122" cy="125.648" r="2.944"/>
	<path fill="#FBB03B" d="M353.856,106.366c0-3.911-3.168-7.081-7.078-7.081c-3.914,0-7.082,3.17-7.082,7.081
		c0,3.912,3.168,7.081,7.082,7.081C350.688,113.447,353.856,110.278,353.856,106.366z"/>
	<circle fill="#FBB03B" cx="351.059" cy="132.875" r="4.281"/>
	<circle fill="#FBB03B" cx="283.798" cy="130.16" r="14.356"/>
	<circle fill="#FBB03B" cx="368.389" cy="111.084" r="4.717"/>
	<path fill="#FBB03B" d="M391.587,125.648c0-1.625-1.317-2.944-2.94-2.944c-1.627,0-2.947,1.319-2.947,2.944
		c0,1.626,1.32,2.944,2.947,2.944C390.27,128.593,391.587,127.274,391.587,125.648z"/>
	<circle fill="#FBB03B" cx="412.909" cy="88.273" r="8.446"/>
	<circle fill="#FBB03B" cx="442.632" cy="103.252" r="7.832"/>
	<circle fill="#FBB03B" cx="460.934" cy="122.408" r="10.469"/>
	<circle fill="#FBB03B" cx="419.358" cy="138.066" r="6.449"/>
	<circle fill="#FBB03B" cx="417.577" cy="117.388" r="1.782"/>
	<circle fill="#FBB03B" cx="363.463" cy="80.15" r="8.123"/>
	<circle fill="#FBB03B" cx="314.269" cy="111.084" r="4.718"/>
	<circle fill="#FBB03B" cx="241.626" cy="109.583" r="3.864"/>
	<circle fill="#FBB03B" cx="270.981" cy="92.118" r="4.605"/>
	<path fill="#FBB03B" d="M496.915,96.832c0-1.355-1.095-2.454-2.453-2.454c-1.354,0-2.455,1.099-2.455,2.454
		s1.102,2.454,2.455,2.454C495.82,99.286,496.915,98.188,496.915,96.832z"/>
	<circle fill="#FBB03B" cx="470.253" cy="98.641" r="4.611"/>
	<path fill="#FBB03B" d="M445.885,131.615c0-3.063-2.481-5.545-5.541-5.545c-3.063,0-5.544,2.482-5.544,5.545
		c0,3.06,2.481,5.542,5.544,5.542C443.404,137.157,445.885,134.675,445.885,131.615z"/>
	<circle fill="#FBB03B" cx="395.08" cy="99.76" r="3.493"/>
	<circle fill="#FBB03B" cx="312.776" cy="141.291" r="3.225"/>
	<path fill="#FBB03B" d="M259.833,136.326c0-2.742-2.221-4.965-4.961-4.965c-2.745,0-4.968,2.223-4.968,4.965
		s2.223,4.965,4.968,4.965C257.613,141.291,259.833,139.068,259.833,136.326z"/>
	<circle fill="#FBB03B" cx="270.28" cy="113.486" r="3.904"/>
	<circle fill="#FBB03B" cx="291.257" cy="101.264" r="1.99"/>
	<circle fill="#FBB03B" cx="124.474" cy="89.162" r="7.561"/>
	<circle fill="#FBB03B" cx="145.045" cy="125.648" r="2.943"/>
	<path fill="#FBB03B" d="M168.78,106.366c0-3.911-3.168-7.081-7.079-7.081c-3.913,0-7.081,3.17-7.081,7.081
		c0,3.912,3.168,7.081,7.081,7.081C165.612,113.447,168.78,110.278,168.78,106.366z"/>
	<circle fill="#FBB03B" cx="165.982" cy="132.875" r="4.282"/>
	<circle fill="#FBB03B" cx="98.72" cy="130.16" r="14.356"/>
	<circle fill="#FBB03B" cx="183.312" cy="111.084" r="4.717"/>
	<circle fill="#FBB03B" cx="203.567" cy="125.648" r="2.944"/>
	<circle fill="#FBB03B" cx="227.831" cy="88.273" r="8.448"/>
	<circle fill="#FBB03B" cx="234.282" cy="138.066" r="6.449"/>
	<circle fill="#FBB03B" cx="232.5" cy="117.388" r="1.782"/>
	<circle fill="#FBB03B" cx="178.387" cy="80.15" r="8.123"/>
	<circle fill="#FBB03B" cx="129.193" cy="111.084" r="4.718"/>
	<circle fill="#FBB03B" cx="85.904" cy="92.118" r="4.605"/>
	<circle fill="#FBB03B" cx="210.004" cy="99.76" r="3.493"/>
	<circle fill="#FBB03B" cx="127.699" cy="141.291" r="3.224"/>
	<circle fill="#FBB03B" cx="85.203" cy="113.486" r="3.904"/>
	<circle fill="#FBB03B" cx="106.181" cy="101.264" r="1.989"/>
</g>
<g>
	<g>
		<circle fill="#F7931E" cx="1136.082" cy="114.87" r="3.599"/>
		<circle fill="#F7931E" cx="1133.792" cy="137.441" r="5.888"/>
		<circle fill="#F7931E" cx="1103.374" cy="127.955" r="9.486"/>
		<circle fill="#F7931E" cx="1100.592" cy="93.12" r="2.781"/>
		<circle fill="#F7931E" cx="1070.662" cy="105.058" r="2.943"/>
		<circle fill="#F7931E" cx="1189.727" cy="114.216" r="2.944"/>
		<circle fill="#F7931E" cx="1174.026" cy="98.027" r="4.907"/>
		<circle fill="#F7931E" cx="1167.32" cy="132.37" r="6.706"/>
		<circle fill="#F7931E" cx="1147.658" cy="84.58" r="5.76"/>
	</g>
	<g>
		<circle fill="#F7931E" cx="1018.115" cy="101.132" r="3.599"/>
		<circle fill="#F7931E" cx="1020.404" cy="78.562" r="5.888"/>
		<circle fill="#F7931E" cx="1050.823" cy="88.048" r="9.486"/>
		<circle fill="#F7931E" cx="1053.604" cy="122.883" r="2.781"/>
		<circle fill="#F7931E" cx="1083.534" cy="110.944" r="2.944"/>
		<circle fill="#F7931E" cx="951.457" cy="137.185" r="6.144"/>
		<circle fill="#F7931E" cx="964.47" cy="101.787" r="2.944"/>
		<circle fill="#F7931E" cx="980.17" cy="117.976" r="4.907"/>
		<circle fill="#F7931E" cx="986.876" cy="83.632" r="6.706"/>
		<circle fill="#F7931E" cx="1006.538" cy="131.423" r="5.76"/>
		<circle fill="#F7931E" cx="931.923" cy="121.25" r="4.415"/>
	</g>
	<g>
		<circle fill="#F7931E" cx="861.271" cy="114.87" r="3.598"/>
		<circle fill="#F7931E" cx="858.981" cy="137.441" r="5.888"/>
		<circle fill="#F7931E" cx="828.563" cy="127.955" r="9.486"/>
		<circle fill="#F7931E" cx="825.781" cy="93.12" r="2.781"/>
		<circle fill="#F7931E" cx="795.851" cy="105.058" r="2.944"/>
		<circle fill="#F7931E" cx="927.928" cy="78.818" r="6.145"/>
		<circle fill="#F7931E" cx="914.916" cy="114.216" r="2.944"/>
		<circle fill="#F7931E" cx="899.215" cy="98.027" r="4.907"/>
		<circle fill="#F7931E" cx="892.509" cy="132.37" r="6.706"/>
		<circle fill="#F7931E" cx="872.848" cy="84.58" r="5.76"/>
		<circle fill="#F7931E" cx="947.462" cy="94.753" r="4.414"/>
	</g>
	<g>
		<circle fill="#F7931E" cx="743.304" cy="101.132" r="3.599"/>
		<circle fill="#F7931E" cx="745.593" cy="78.562" r="5.888"/>
		<circle fill="#F7931E" cx="776.013" cy="88.048" r="9.486"/>
		<circle fill="#F7931E" cx="778.793" cy="122.883" r="2.781"/>
		<circle fill="#F7931E" cx="808.724" cy="110.944" r="2.944"/>
		<circle fill="#F7931E" cx="676.646" cy="137.185" r="6.145"/>
		<circle fill="#F7931E" cx="689.659" cy="101.787" r="2.944"/>
		<circle fill="#F7931E" cx="705.359" cy="117.976" r="4.907"/>
		<circle fill="#F7931E" cx="712.066" cy="83.632" r="6.706"/>
		<circle fill="#F7931E" cx="731.727" cy="131.423" r="5.761"/>
		<circle fill="#F7931E" cx="657.112" cy="121.25" r="4.415"/>
	</g>
	<g>
		<circle fill="#F7931E" cx="580.852" cy="114.87" r="3.598"/>
		<circle fill="#F7931E" cx="578.562" cy="137.441" r="5.888"/>
		<circle fill="#F7931E" cx="548.143" cy="127.955" r="9.486"/>
		<path fill="#F7931E" d="M542.582,93.12c0,1.536,1.242,2.78,2.782,2.78c1.533,0,2.779-1.244,2.779-2.78s-1.246-2.781-2.779-2.781
			C543.824,90.339,542.582,91.583,542.582,93.12z"/>
		<circle fill="#F7931E" cx="515.432" cy="105.058" r="2.944"/>
		<circle fill="#F7931E" cx="647.509" cy="78.818" r="6.145"/>
		<circle fill="#F7931E" cx="634.497" cy="114.216" r="2.943"/>
		<circle fill="#F7931E" cx="618.797" cy="98.027" r="4.906"/>
		<circle fill="#F7931E" cx="612.09" cy="132.37" r="6.705"/>
		<path fill="#F7931E" d="M586.667,84.58c0,3.18,2.581,5.759,5.76,5.759c3.182,0,5.762-2.58,5.762-5.759
			c0-3.182-2.58-5.761-5.762-5.761C589.249,78.818,586.667,81.398,586.667,84.58z"/>
		<circle fill="#F7931E" cx="667.043" cy="94.753" r="4.415"/>
	</g>
	<g>
		<circle fill="#F7931E" cx="462.886" cy="101.132" r="3.599"/>
		<circle fill="#F7931E" cx="465.176" cy="78.562" r="5.888"/>
		<path fill="#F7931E" d="M505.082,88.048c0-5.239-4.251-9.486-9.486-9.486c-5.243,0-9.486,4.247-9.486,9.486
			c0,5.24,4.243,9.487,9.486,9.487C500.831,97.535,505.082,93.288,505.082,88.048z"/>
		<circle fill="#F7931E" cx="498.374" cy="122.883" r="2.779"/>
		<path fill="#F7931E" d="M531.25,110.944c0-1.625-1.32-2.943-2.947-2.943c-1.623,0-2.94,1.319-2.94,2.943
			c0,1.625,1.317,2.944,2.94,2.944C529.929,113.889,531.25,112.57,531.25,110.944z"/>
		<circle fill="#F7931E" cx="396.227" cy="137.185" r="6.145"/>
		<circle fill="#F7931E" cx="409.24" cy="101.787" r="2.944"/>
		<circle fill="#F7931E" cx="424.941" cy="117.976" r="4.906"/>
		<circle fill="#F7931E" cx="431.647" cy="83.632" r="6.705"/>
		<circle fill="#F7931E" cx="451.308" cy="131.423" r="5.762"/>
		<path fill="#F7931E" d="M381.107,121.25c0-2.438-1.974-4.415-4.414-4.415c-2.439,0-4.413,1.976-4.413,4.415
			s1.974,4.415,4.413,4.415C379.133,125.664,381.107,123.688,381.107,121.25z"/>
	</g>
	<g>
		<circle fill="#F7931E" cx="306.041" cy="114.87" r="3.599"/>
		<path fill="#F7931E" d="M297.863,137.441c0,3.252,2.639,5.887,5.889,5.887c3.249,0,5.888-2.635,5.888-5.887
			c0-3.253-2.639-5.889-5.888-5.889C300.501,131.553,297.863,134.188,297.863,137.441z"/>
		<circle fill="#F7931E" cx="273.332" cy="127.955" r="9.486"/>
		<path fill="#F7931E" d="M267.771,93.12c0,1.536,1.243,2.78,2.782,2.78c1.533,0,2.779-1.244,2.779-2.78s-1.246-2.781-2.779-2.781
			C269.014,90.339,267.771,91.583,267.771,93.12z"/>
		<circle fill="#F7931E" cx="240.621" cy="105.058" r="2.944"/>
		<path fill="#F7931E" d="M366.552,78.818c0,3.395,2.756,6.146,6.145,6.146c3.396,0,6.146-2.75,6.146-6.146
			c0-3.393-2.75-6.144-6.146-6.144C369.308,72.674,366.552,75.426,366.552,78.818z"/>
		<circle fill="#F7931E" cx="359.687" cy="114.216" r="2.944"/>
		<circle fill="#F7931E" cx="343.986" cy="98.027" r="4.906"/>
		<circle fill="#F7931E" cx="337.279" cy="132.37" r="6.705"/>
		<circle fill="#F7931E" cx="317.618" cy="84.58" r="5.761"/>
		<circle fill="#F7931E" cx="392.234" cy="94.753" r="4.414"/>
	</g>
	<g>
		<circle fill="#F7931E" cx="188.075" cy="101.132" r="3.598"/>
		<circle fill="#F7931E" cx="190.365" cy="78.562" r="5.888"/>
		<path fill="#F7931E" d="M230.27,88.048c0-5.239-4.25-9.486-9.486-9.486c-5.241,0-9.486,4.247-9.486,9.486
			c0,5.24,4.245,9.487,9.486,9.487C226.02,97.535,230.27,93.288,230.27,88.048z"/>
		<circle fill="#F7931E" cx="223.563" cy="122.883" r="2.779"/>
		<path fill="#F7931E" d="M256.438,110.944c0-1.625-1.318-2.943-2.946-2.943c-1.623,0-2.941,1.319-2.941,2.943
			c0,1.625,1.318,2.944,2.941,2.944C255.12,113.889,256.438,112.57,256.438,110.944z"/>
		<circle fill="#F7931E" cx="121.416" cy="137.185" r="6.145"/>
		<circle fill="#F7931E" cx="134.429" cy="101.787" r="2.944"/>
		<circle fill="#F7931E" cx="150.13" cy="117.976" r="4.906"/>
		<circle fill="#F7931E" cx="156.836" cy="83.632" r="6.705"/>
		<circle fill="#F7931E" cx="176.498" cy="131.423" r="5.762"/>
		<circle fill="#F7931E" cx="101.882" cy="121.25" r="4.414"/>
	</g>
	<g>
		<path fill="#F7931E" d="M95.668,88.048c0-5.239-4.25-9.486-9.485-9.486c-5.242,0-9.486,4.247-9.486,9.486
			c0,5.24,4.244,9.487,9.486,9.487C91.418,97.535,95.668,93.288,95.668,88.048z"/>
		<circle fill="#F7931E" cx="88.962" cy="122.883" r="2.779"/>
		<circle fill="#F7931E" cx="118.894" cy="110.944" r="2.944"/>
	</g>
</g>
<g>
	<circle fill="#FBD13B" cx="1070.662" cy="86.303" r="2.943"/>
	<circle fill="#FBD13B" cx="1055.776" cy="97.667" r="4.497"/>
	<circle fill="#FBD13B" cx="1036.616" cy="86.303" r="2.944"/>
	<circle fill="#FBD13B" cx="1005.123" cy="117.955" r="4.345"/>
	<circle fill="#FBD13B" cx="936.187" cy="93.511" r="4.264"/>
	<circle fill="#FBD13B" cx="876.07" cy="125.863" r="7.908"/>
	<circle fill="#FBD13B" cx="817.792" cy="91.509" r="5.208"/>
	<circle fill="#FBD13B" cx="758.507" cy="114.329" r="4.807"/>
	<circle fill="#FBD13B" cx="688.526" cy="87.435" r="4.077"/>
	<circle fill="#FBD13B" cx="603.77" cy="105.843" r="3.681"/>
	<circle fill="#FBD13B" cx="500.338" cy="106.907" r="4.743"/>
	<circle fill="#FBD13B" cx="540.429" cy="110.778" r="4.935"/>
	<circle fill="#FBD13B" cx="524.164" cy="92.09" r="5.788"/>
	<circle fill="#FBD13B" cx="426.5" cy="119.475" r="5.146"/>
	<path fill="#FBD13B" d="M306.041,102.179c0,4.789,3.88,8.668,8.666,8.668c4.791,0,8.672-3.88,8.672-8.668
		c0-4.788-3.881-8.668-8.672-8.668C309.92,93.511,306.041,97.391,306.041,102.179z"/>
	<circle fill="#FBD13B" cx="288.032" cy="127.514" r="5.214"/>
	<circle fill="#FBD13B" cx="245.263" cy="110.485" r="4.642"/>
	<path fill="#FBD13B" d="M398.573,108.969c0,3.759,3.049,6.805,6.805,6.805c3.759,0,6.807-3.046,6.807-6.805
		c0-3.758-3.048-6.805-6.807-6.805C401.622,102.164,398.573,105.21,398.573,108.969z"/>
	<circle fill="#FBD13B" cx="678.218" cy="117.983" r="4.373"/>
	<circle fill="#FBD13B" cx="1184.33" cy="114.365" r="5.396"/>
	<circle fill="#FBD13B" cx="1132.135" cy="100.949" r="4.231"/>
	<circle fill="#FBD13B" cx="173.688" cy="98.417" r="4.908"/>
	<circle fill="#FBD13B" cx="375.975" cy="114.519" r="2.869"/>
	<circle fill="#FBD13B" cx="183.18" cy="121.059" r="1.297"/>
	<circle fill="#FBD13B" cx="133.283" cy="121.477" r="4.09"/>
	<circle fill="#FBD13B" cx="80.53" cy="97.005" r="3.833"/>
	<circle fill="#FBD13B" cx="571.251" cy="90.669" r="1.423"/>
</g>
<circle fill="#F7931E" cx="8.321" cy="59.423" r="5.762"/>
<circle fill="#FBB03B" cx="9.906" cy="26.084" r="4.717"/>
<circle fill="#F7931E" cx="5.143" cy="16.132" r="3.598"/>
<circle fill="#F7931E" cx="16.72" cy="46.423" r="5.762"/>
<circle fill="#FBD13B" cx="10.038" cy="36.059" r="1.297"/>
<circle fill="#FBB03B" cx="8.483" cy="80.218" r="4.964"/>
<circle fill="#F7931E" cx="10.739" cy="78.818" r="6.144"/>
<circle fill="#FBB03B" cx="8.446" cy="130.271" r="8.447"/>
<circle fill="#FBB03B" cx="26.273" cy="118.784" r="3.492"/>
<circle fill="#F7931E" cx="19.604" cy="124.883" r="2.781"/>
<circle fill="#FBD13B" cx="7.129" cy="86.969" r="3.61"/>
<circle fill="#FBB03B" cx="71.662" cy="14.384" r="14.356"/>
<circle fill="#FBB03B" cx="29.49" cy="34.961" r="3.865"/>
<circle fill="#FBB03B" cx="58.844" cy="52.426" r="4.604"/>
<circle fill="#FBB03B" cx="42.734" cy="8.218" r="4.964"/>
<circle fill="#FBB03B" cx="58.144" cy="31.058" r="3.904"/>
<circle fill="#F7931E" cx="40.479" cy="6.818" r="6.144"/>
<circle fill="#F7931E" cx="53.491" cy="42.216" r="2.943"/>
<circle fill="#F7931E" cx="69.191" cy="26.027" r="4.907"/>
<circle fill="#F7931E" cx="75.898" cy="60.37" r="6.706"/>
<circle fill="#F7931E" cx="21.944" cy="22.753" r="4.415"/>
<circle fill="#FBD13B" cx="58.888" cy="42.365" r="5.397"/>
<circle fill="#FBD13B" cx="44.089" cy="14.969" r="3.61"/>
<circle fill="#FBB03B" cx="57.549" cy="109.583" r="3.864"/>
<circle fill="#FBB03B" cx="70.792" cy="136.326" r="4.965"/>
<path fill="#F7931E" d="M58.073,101.132c0-1.986-1.614-3.598-3.599-3.598c-1.988,0-3.599,1.611-3.599,3.598
	c0,1.987,1.61,3.599,3.599,3.599C56.458,104.731,58.073,103.119,58.073,101.132z"/>
<circle fill="#F7931E" cx="56.763" cy="78.562" r="5.888"/>
<circle fill="#F7931E" cx="24.235" cy="83.632" r="6.706"/>
<circle fill="#F7931E" cx="42.896" cy="131.423" r="5.762"/>
<circle fill="#FBD13B" cx="63.621" cy="123.684" r="2.207"/>
<circle fill="#FBB03B" cx="45.546" cy="92.725" r="7.081"/>
<circle fill="#FBB03B" cx="41.264" cy="119.232" r="4.281"/>
<circle fill="#FBB03B" cx="28.86" cy="66.509" r="8.123"/>
<circle fill="#F7931E" cx="40.342" cy="74.947" r="9.486"/>
<circle fill="#FBB03B" cx="45.546" cy="92.725" r="7.081"/>
<circle fill="#FBB03B" cx="41.264" cy="119.232" r="4.281"/>
<circle fill="#FBB03B" cx="24.935" cy="105.442" r="4.718"/>
<circle fill="#FBB03B" cx="38.86" cy="50.509" r="8.123"/>
<circle fill="#F7931E" cx="40.342" cy="74.947" r="9.486"/>
<circle fill="#F7931E" cx="37.562" cy="109.783" r="2.781"/>
<circle fill="#F7931E" cx="21.503" cy="99.958" r="2.944"/>
</svg>
