<?xml version="1.0" encoding="utf-8"?>
<!-- Generator: Adobe Illustrator 15.1.0, SVG Export Plug-In . SVG Version: 6.00 Build 0)  -->
<!DOCTYPE svg PUBLIC "-//W3C//DTD SVG 1.1//EN" "http://www.w3.org/Graphics/SVG/1.1/DTD/svg11.dtd">
<svg version="1.1" id="Calque_1" xmlns="http://www.w3.org/2000/svg" xmlns:xlink="http://www.w3.org/1999/xlink" x="0px" y="0px"
	 width="500px" height="500px" viewBox="0 0 500 500" enable-background="new 0 0 500 500" xml:space="preserve">
<path fill="#FFB800" d="M481.736,412.16L280.503,63.613c0,0-13.915-25.814-30.503-25.814s-30.502,25.814-30.502,25.814
	L18.264,412.16c0,0-16.051,27.137-7.889,40.245c6.904,11.088,37.656,10.031,37.656,10.031h403.938c0,0,30.752,1.057,37.655-10.031
	C497.786,439.297,481.736,412.16,481.736,412.16z"/>
<path fill="#FFFFFF" d="M397.035,376.072L269.354,154.921c0,0-8.829-16.379-19.354-16.379c-10.525,0-19.354,16.379-19.354,16.379
	L102.965,376.072c0,0-10.184,17.217-5.005,25.535c4.38,7.035,23.893,6.365,23.893,6.365h256.296c0,0,19.512,0.67,23.892-6.365
	C407.22,393.289,397.035,376.072,397.035,376.072z"/>
<g>
	<path d="M266.647,355.396c-0.724,16.89-13.995,28.23-28.713,28.23s-27.024-11.341-26.3-28.23
		c0.724-16.167,13.995-26.783,28.713-26.783C255.065,328.613,267.371,339.229,266.647,355.396z M281.849,232.098
		c-0.482,24.853-13.512,50.188-24.853,71.18c-2.413,4.584-6.998,10.616-13.03,10.616c-6.515,0-9.169-6.032-11.099-11.341
		c-7.48-19.303-11.582-44.396-11.582-65.147c0-21.233,12.547-31.368,33.539-31.368C271.715,206.039,282.09,214.967,281.849,232.098z
		"/>
</g>
</svg>
